<svg width="650" height="119" xmlns="http://www.w3.org/2000/svg" xmlns:xlink="http://www.w3.org/1999/xlink" xml:space="preserve" overflow="hidden"><defs><clipPath id="clip0"><rect x="584" y="87" width="650" height="119"/></clipPath></defs><g clip-path="url(#clip0)" transform="translate(-584 -87)"><path d="M1044.62 160.775C1036.97 160.85 1030.9 162.585 1026.41 165.98 1021.92 169.375 1019.62 173.98 1019.52 179.793 1019.63 185.2 1021.75 189.51 1025.9 192.724 1030.04 195.938 1035.57 197.585 1042.48 197.663 1047.44 197.647 1052.12 196.714 1056.54 194.864 1060.96 193.014 1064.56 190.344 1067.35 186.855 1070.15 183.366 1071.59 179.154 1071.68 174.218L1071.68 167.989C1068.64 166.397 1064.75 164.826 1059.99 163.275 1055.24 161.724 1050.11 160.891 1044.62 160.775ZM700.109 147.174C695.847 147.267 692.395 148.763 689.753 151.663 687.11 154.563 685.75 158.314 685.672 162.915 685.75 167.516 687.11 171.267 689.753 174.167 692.395 177.067 695.847 178.563 700.109 178.656 704.372 178.563 707.824 177.067 710.466 174.167 713.108 171.267 714.469 167.516 714.547 162.915 714.469 158.314 713.108 154.563 710.466 151.663 707.824 148.763 704.372 147.267 700.109 147.174ZM1206.63 119.995C1211.26 119.964 1215.66 120.843 1219.83 122.631 1224.01 124.42 1227.75 127.303 1231.06 131.282 1231.76 132.022 1232.19 132.835 1232.36 133.72 1232.53 134.604 1232.15 135.54 1231.22 136.526L1230.56 137.182C1229.83 137.879 1229.01 138.288 1228.11 138.411 1227.21 138.534 1226.23 138.125 1225.17 137.182 1222.35 133.859 1219.45 131.49 1216.47 130.072 1213.49 128.655 1210.1 127.966 1206.3 128.003 1201.31 128.065 1197.31 129.253 1194.33 131.568 1191.34 133.883 1189.81 136.957 1189.73 140.788 1189.83 144.561 1191.36 147.587 1194.31 149.864 1197.25 152.142 1201.04 154.143 1205.65 155.867 1210.49 157.75 1215.05 159.739 1219.34 161.834 1223.63 163.93 1227.12 166.636 1229.82 169.951 1232.52 173.266 1233.91 177.696 1234 183.239 1233.89 190.133 1231.33 195.6 1226.32 199.639 1221.32 203.679 1214.53 205.744 1205.97 205.836 1200.21 205.84 1194.72 204.687 1189.52 202.381 1184.31 200.074 1180.02 196.589 1176.64 191.927 1176.02 191.021 1175.66 190.127 1175.57 189.242 1175.48 188.358 1175.95 187.504 1176.97 186.681L1177.78 186.19C1178.67 185.425 1179.52 185.029 1180.35 185.001 1181.17 184.974 1182.06 185.479 1183.03 186.517 1185.65 190.216 1188.83 193.022 1192.57 194.938 1196.3 196.854 1200.55 197.817 1205.32 197.827 1211.23 197.769 1215.94 196.451 1219.45 193.873 1222.96 191.294 1224.75 187.805 1224.84 183.403 1224.6 177.858 1222.2 173.706 1217.64 170.947 1213.08 168.188 1207.77 165.674 1201.71 163.407 1196.23 161.402 1191.4 158.773 1187.2 155.519 1183.01 152.265 1180.8 147.628 1180.57 141.608 1180.7 134.97 1183.14 129.729 1187.88 125.884 1192.62 122.039 1198.87 120.075 1206.63 119.995ZM1047.08 119.995C1057.72 120.089 1065.91 122.968 1071.65 128.632 1077.38 134.295 1080.28 142.176 1080.35 152.274L1080.35 200.264C1080.32 202.695 1079.23 203.897 1077.08 203.869L1074.95 203.869C1073.88 203.852 1073.07 203.518 1072.52 202.866 1071.96 202.213 1071.68 201.346 1071.68 200.264L1071.68 191.597C1068.24 196.131 1063.93 199.63 1058.74 202.094 1053.56 204.558 1047.97 205.805 1041.99 205.836 1032.42 205.727 1024.79 203.327 1019.1 198.634 1013.41 193.942 1010.5 187.607 1010.36 179.629 1010.51 171.48 1013.65 164.995 1019.78 160.172 1025.91 155.35 1034.13 152.881 1044.45 152.766 1049.79 152.807 1054.74 153.461 1059.3 154.727 1063.85 155.994 1067.98 157.628 1071.68 159.63L1071.68 150.47C1071.58 143.729 1069.31 138.351 1064.87 134.337 1060.43 130.323 1054.39 128.266 1046.75 128.167 1042.29 128.16 1037.8 128.994 1033.26 130.668 1028.72 132.342 1024.3 134.897 1020.01 138.335 1019.04 139.124 1018.16 139.431 1017.39 139.257 1016.62 139.083 1015.91 138.611 1015.27 137.842L1014.61 137.022C1013.83 136.021 1013.56 135.031 1013.82 134.05 1014.07 133.07 1014.66 132.202 1015.59 131.447 1020.87 127.389 1026.05 124.458 1031.15 122.652 1036.24 120.846 1041.55 119.96 1047.08 119.995ZM884.546 119.995C890.254 119.93 895.89 120.959 901.454 123.082 907.018 125.205 912.203 128.812 917.009 133.904 917.713 134.566 918.15 135.331 918.321 136.199 918.491 137.066 918.109 137.995 917.173 138.985L916.353 139.805C915.616 140.504 914.796 140.908 913.894 141.014 912.992 141.119 912.009 140.661 910.943 139.641 906.513 135.147 902.093 132.087 897.683 130.462 893.273 128.837 888.895 128.072 884.546 128.167 874.453 128.372 866.317 131.691 860.138 138.125 853.959 144.558 850.782 152.876 850.608 163.079 850.741 173.053 853.836 181.255 859.892 187.686 865.948 194.115 874.166 197.441 884.546 197.663 888.895 197.759 893.273 196.994 897.683 195.368 902.093 193.743 906.513 190.684 910.943 186.19 912.009 185.169 912.992 184.711 913.894 184.817 914.796 184.923 915.616 185.326 916.353 186.026L917.173 186.845C918.109 187.836 918.491 188.765 918.321 189.632 918.15 190.499 917.713 191.264 917.009 191.927 912.203 197.018 907.018 200.625 901.454 202.748 895.89 204.871 890.254 205.901 884.546 205.836 871.848 205.563 861.549 201.442 853.651 193.472 845.754 185.502 841.686 175.317 841.447 162.915 841.686 150.514 845.754 140.328 853.651 132.358 861.549 124.388 871.848 120.267 884.546 119.995ZM802.015 119.831C812.117 119.95 820.303 123.191 826.574 129.553 832.845 135.916 836.075 144.684 836.262 155.859L836.262 195.676C836.252 198.312 835.535 200.332 834.112 201.739 832.688 203.146 830.62 203.856 827.906 203.869L812.013 203.869C809.377 203.856 807.357 203.146 805.95 201.739 804.543 200.332 803.833 198.312 803.82 195.676L803.82 158.153C803.793 154.893 802.862 152.237 801.03 150.185 799.198 148.134 796.627 147.075 793.317 147.01 790.007 147.075 787.436 148.134 785.603 150.185 783.771 152.237 782.841 154.893 782.814 158.153L782.814 195.679C782.8 198.313 782.09 200.334 780.684 201.74 779.277 203.146 777.256 203.856 774.621 203.869L758.727 203.869C756.092 203.856 754.072 203.146 752.665 201.74 751.259 200.334 750.549 198.313 750.535 195.679L750.535 129.332C750.549 126.697 751.259 124.677 752.665 123.271 754.072 121.865 756.092 121.155 758.727 121.141L768.722 121.141C771.357 121.155 773.378 121.865 774.785 123.271 776.191 124.677 776.901 126.697 776.915 129.332L776.915 132.766C779.516 128.932 782.878 125.834 787 123.474 791.122 121.113 796.127 119.899 802.015 119.831ZM700.109 119.831C713.8 120.069 724.865 124.136 733.306 132.031 741.746 139.928 746.088 150.222 746.334 162.915 746.088 175.608 741.746 185.902 733.306 193.799 724.865 201.694 713.8 205.761 700.109 205.999 686.419 205.761 675.353 201.694 666.913 193.799 658.473 185.902 654.13 175.608 653.885 162.915 654.13 150.222 658.473 139.928 666.913 132.031 675.353 124.136 686.419 120.069 700.109 119.831ZM1146.34 92.3159C1147.19 92.2482 1147.84 92.4282 1148.3 92.8556 1148.9 93.4254 1149.2 94.334 1149.2 95.5795L1149.2 121.469 1171.98 121.469C1172.99 121.476 1173.81 121.748 1174.44 122.287 1175.08 122.824 1175.41 123.587 1175.43 124.574L1175.43 125.881C1175.41 126.94 1175.08 127.723 1174.44 128.231 1173.81 128.738 1172.99 128.99 1171.98 128.986L1149.2 128.986 1149.2 180.945C1149.23 186.596 1150.51 190.824 1153.05 193.627 1155.58 196.431 1159.16 197.831 1163.79 197.827 1165.72 197.81 1167.43 197.516 1168.93 196.946 1170.43 196.376 1171.94 195.631 1173.46 194.713 1174.68 193.992 1175.69 193.753 1176.49 193.996 1177.3 194.238 1177.98 194.86 1178.54 195.86L1179.03 196.516C1179.62 197.669 1179.68 198.677 1179.2 199.543 1178.72 200.408 1178.12 201.089 1177.4 201.586 1175.29 202.979 1173.1 204.034 1170.82 204.753 1168.53 205.471 1165.97 205.832 1163.13 205.836 1156.01 205.82 1150.42 203.727 1146.38 199.557 1142.33 195.388 1140.27 189.238 1140.2 181.108L1140.2 128.986 1131.07 128.986C1116.22 129.423 1109.55 133.327 1106.69 136.054 1103.83 138.782 1100.74 148.092 1100.62 156.526L1100.62 200.265C1100.61 201.347 1100.31 202.214 1099.72 202.866 1099.14 203.518 1098.35 203.852 1097.35 203.869L1094.9 203.869C1093.9 203.852 1093.11 203.518 1092.53 202.866 1091.94 202.214 1091.64 201.347 1091.63 200.265L1091.63 124.909C1091.64 123.834 1091.94 122.995 1092.53 122.39 1093.11 121.787 1093.9 121.48 1094.9 121.469L1096.86 121.469C1097.93 121.48 1098.74 121.787 1099.29 122.39 1099.85 122.995 1100.13 123.834 1100.13 124.909L1100.13 135.377C1102.85 130.532 1110.53 122.055 1140.2 121.469L1140.2 96.5628C1140.19 95.7365 1140.45 95.0129 1140.98 94.392 1141.5 93.7706 1142.33 93.2926 1143.47 92.9583L1145.43 92.4663C1145.76 92.3887 1146.06 92.3385 1146.34 92.3159ZM624.756 92.0147C626.549 92.0786 627.979 92.7071 629.047 93.9001 630.471 95.4908 631.188 97.6348 631.198 100.332L631.198 121.141 646.118 121.141C648.761 121.155 650.81 121.865 652.266 123.27 653.721 124.675 654.458 126.694 654.479 129.327L654.479 136.039C654.458 138.672 653.721 140.692 652.266 142.097 650.81 143.502 648.761 144.211 646.118 144.225L631.198 144.225 631.198 169.146C631.266 172.849 632.072 175.404 633.616 176.811 635.16 178.218 637.032 178.888 639.232 178.82 640.4 178.792 641.547 178.561 642.675 178.126 643.802 177.691 644.785 177.219 645.626 176.711 647.72 175.324 649.352 174.983 650.524 175.686 651.695 176.389 652.631 177.603 653.332 179.329L658.906 192.255C659.698 194.263 659.63 195.851 658.701 197.02 657.772 198.189 656.638 199.163 655.299 199.941 652.604 201.913 649.304 203.414 645.4 204.444 641.496 205.474 637.418 205.993 633.165 205.999 627.431 206.032 621.985 204.93 616.828 202.694 611.671 200.458 607.451 196.893 604.169 192.001 600.887 187.108 599.192 180.692 599.083 172.753L599.083 144.225 592.198 144.225C589.56 144.211 587.538 143.502 586.131 142.097 584.724 140.692 584.013 138.672 584 136.039L584 129.327C584.013 126.694 584.724 124.675 586.131 123.27 587.538 121.865 589.56 121.155 592.198 121.141L599.083 121.141 599.083 103.281C599.097 100.629 599.807 98.6825 601.214 97.4434 602.62 96.2042 604.641 95.3645 607.276 94.9242L622.842 92.139C623.52 92.0348 624.158 91.9934 624.756 92.0147ZM936.486 87.0182C936.973 87.0728 937.361 87.2504 937.649 87.5506 938.224 88.1516 938.504 89.0801 938.487 90.3364L938.487 134.066C941.46 129.683 945.355 126.253 950.173 123.776 954.991 121.299 960.609 120.038 967.026 119.995 977.232 120.147 985.271 123.236 991.145 129.263 997.018 135.289 1000.02 143.335 1000.13 153.401L1000.13 200.264C1000.13 201.346 999.85 202.213 999.295 202.866 998.74 203.518 997.929 203.852 996.862 203.869L994.572 203.869C993.505 203.852 992.694 203.518 992.138 202.866 991.583 202.213 991.304 201.346 991.3 200.264L991.3 154.221C991.208 146.174 988.891 139.818 984.35 135.152 979.809 130.485 973.596 128.102 965.714 128.003 957.547 128.126 951 130.584 946.073 135.377 941.145 140.17 938.617 146.56 938.487 154.548L938.487 200.264C938.484 201.346 938.204 202.213 937.649 202.866 937.093 203.518 936.282 203.852 935.215 203.869L932.926 203.869C931.859 203.852 931.048 203.518 930.493 202.866 929.937 202.213 929.657 201.346 929.654 200.264L929.654 91.3197C929.641 90.4214 929.872 89.6773 930.349 89.087 930.826 88.4962 931.631 88.0387 932.762 87.7146L934.725 87.2232C935.411 87.0318 935.998 86.9636 936.486 87.0182Z" fill="#FFFFFF" fill-rule="evenodd"/></g></svg>