<svg width="650" height="119" xmlns="http://www.w3.org/2000/svg" xmlns:xlink="http://www.w3.org/1999/xlink" xml:space="preserve" overflow="hidden"><defs><clipPath id="clip0"><rect x="583" y="10841" width="650" height="119"/></clipPath></defs><g clip-path="url(#clip0)" transform="translate(-583 -10841)"><path d="M1043.62 10914.8C1035.97 10914.8 1029.9 10916.6 1025.41 10920 1020.92 10923.4 1018.62 10928 1018.52 10933.8 1018.63 10939.2 1020.75 10943.5 1024.9 10946.7 1029.04 10949.9 1034.57 10951.6 1041.48 10951.7 1046.44 10951.6 1051.12 10950.7 1055.54 10948.9 1059.96 10947 1063.56 10944.3 1066.35 10940.9 1069.15 10937.4 1070.59 10933.2 1070.68 10928.2L1070.68 10922C1067.64 10920.4 1063.75 10918.8 1058.99 10917.3 1054.24 10915.7 1049.11 10914.9 1043.62 10914.8ZM699.109 10901.2C694.847 10901.3 691.395 10902.8 688.753 10905.7 686.11 10908.6 684.75 10912.3 684.671 10916.9 684.75 10921.5 686.11 10925.3 688.753 10928.2 691.395 10931.1 694.847 10932.6 699.109 10932.7 703.372 10932.6 706.824 10931.1 709.466 10928.2 712.108 10925.3 713.469 10921.5 713.547 10916.9 713.469 10912.3 712.108 10908.6 709.466 10905.7 706.824 10902.8 703.372 10901.3 699.109 10901.2ZM1205.63 10874C1210.26 10874 1214.66 10874.8 1218.83 10876.6 1223.01 10878.4 1226.75 10881.3 1230.06 10885.3 1230.76 10886 1231.19 10886.8 1231.36 10887.7 1231.53 10888.6 1231.15 10889.5 1230.22 10890.5L1229.56 10891.2C1228.83 10891.9 1228.01 10892.3 1227.11 10892.4 1226.21 10892.5 1225.23 10892.1 1224.17 10891.2 1221.35 10887.9 1218.45 10885.5 1215.47 10884.1 1212.49 10882.7 1209.1 10882 1205.3 10882 1200.31 10882.1 1196.31 10883.3 1193.33 10885.6 1190.34 10887.9 1188.81 10891 1188.73 10894.8 1188.83 10898.6 1190.36 10901.6 1193.31 10903.9 1196.25 10906.1 1200.04 10908.1 1204.65 10909.9 1209.49 10911.8 1214.05 10913.7 1218.34 10915.8 1222.63 10917.9 1226.12 10920.6 1228.82 10924 1231.52 10927.3 1232.91 10931.7 1233 10937.2 1232.89 10944.1 1230.33 10949.6 1225.32 10953.6 1220.32 10957.7 1213.53 10959.7 1204.97 10959.8 1199.21 10959.8 1193.72 10958.7 1188.52 10956.4 1183.31 10954.1 1179.02 10950.6 1175.64 10945.9 1175.02 10945 1174.66 10944.1 1174.57 10943.2 1174.48 10942.4 1174.95 10941.5 1175.97 10940.7L1176.78 10940.2C1177.67 10939.4 1178.52 10939 1179.35 10939 1180.17 10939 1181.06 10939.5 1182.03 10940.5 1184.65 10944.2 1187.83 10947 1191.57 10948.9 1195.3 10950.9 1199.55 10951.8 1204.32 10951.8 1210.23 10951.8 1214.94 10950.5 1218.45 10947.9 1221.96 10945.3 1223.75 10941.8 1223.84 10937.4 1223.6 10931.9 1221.2 10927.7 1216.64 10924.9 1212.08 10922.2 1206.77 10919.7 1200.71 10917.4 1195.23 10915.4 1190.4 10912.8 1186.2 10909.5 1182.01 10906.3 1179.8 10901.6 1179.57 10895.6 1179.7 10889 1182.14 10883.7 1186.88 10879.9 1191.62 10876 1197.87 10874.1 1205.63 10874ZM1046.08 10874C1056.72 10874.1 1064.91 10877 1070.65 10882.6 1076.38 10888.3 1079.28 10896.2 1079.35 10906.3L1079.35 10954.3C1079.32 10956.7 1078.23 10957.9 1076.08 10957.9L1073.95 10957.9C1072.88 10957.9 1072.07 10957.5 1071.52 10956.9 1070.96 10956.2 1070.68 10955.3 1070.68 10954.3L1070.68 10945.6C1067.24 10950.1 1062.93 10953.6 1057.74 10956.1 1052.56 10958.6 1046.97 10959.8 1040.99 10959.8 1031.42 10959.7 1023.79 10957.3 1018.1 10952.6 1012.41 10947.9 1009.5 10941.6 1009.36 10933.6 1009.51 10925.5 1012.65 10919 1018.78 10914.2 1024.91 10909.4 1033.13 10906.9 1043.45 10906.8 1048.79 10906.8 1053.74 10907.5 1058.3 10908.7 1062.85 10910 1066.98 10911.6 1070.68 10913.6L1070.68 10904.5C1070.58 10897.7 1068.31 10892.4 1063.87 10888.3 1059.43 10884.3 1053.39 10882.3 1045.75 10882.2 1041.29 10882.2 1036.8 10883 1032.26 10884.7 1027.72 10886.3 1023.3 10888.9 1019.01 10892.3 1018.04 10893.1 1017.16 10893.4 1016.39 10893.3 1015.62 10893.1 1014.91 10892.6 1014.27 10891.8L1013.61 10891C1012.83 10890 1012.56 10889 1012.82 10888.1 1013.07 10887.1 1013.66 10886.2 1014.59 10885.4 1019.87 10881.4 1025.05 10878.5 1030.15 10876.7 1035.24 10874.8 1040.55 10874 1046.08 10874ZM883.546 10874C889.254 10873.9 894.89 10875 900.454 10877.1 906.018 10879.2 911.203 10882.8 916.009 10887.9 916.713 10888.6 917.15 10889.3 917.321 10890.2 917.491 10891.1 917.109 10892 916.173 10893L915.353 10893.8C914.616 10894.5 913.796 10894.9 912.894 10895 911.992 10895.1 911.009 10894.7 909.943 10893.6 905.513 10889.1 901.093 10886.1 896.683 10884.5 892.273 10882.8 887.895 10882.1 883.546 10882.2 873.453 10882.4 865.317 10885.7 859.138 10892.1 852.959 10898.6 849.782 10906.9 849.608 10917.1 849.741 10927.1 852.836 10935.3 858.892 10941.7 864.948 10948.1 873.166 10951.4 883.546 10951.7 887.895 10951.8 892.273 10951 896.683 10949.4 901.093 10947.7 905.513 10944.7 909.943 10940.2 911.009 10939.2 911.992 10938.7 912.894 10938.8 913.796 10938.9 914.616 10939.3 915.353 10940L916.173 10940.8C917.109 10941.8 917.491 10942.8 917.321 10943.6 917.15 10944.5 916.713 10945.3 916.009 10945.9 911.203 10951 906.018 10954.6 900.454 10956.7 894.89 10958.9 889.254 10959.9 883.546 10959.8 870.848 10959.6 860.549 10955.4 852.651 10947.5 844.754 10939.5 840.686 10929.3 840.447 10916.9 840.686 10904.5 844.754 10894.3 852.651 10886.4 860.549 10878.4 870.848 10874.3 883.546 10874ZM801.015 10873.8C811.117 10874 819.303 10877.2 825.574 10883.6 831.845 10889.9 835.075 10898.7 835.262 10909.9L835.262 10949.7C835.252 10952.3 834.535 10954.3 833.112 10955.7 831.688 10957.1 829.62 10957.9 826.906 10957.9L811.013 10957.9C808.377 10957.9 806.357 10957.1 804.95 10955.7 803.543 10954.3 802.833 10952.3 802.82 10949.7L802.82 10912.2C802.792 10908.9 801.862 10906.2 800.03 10904.2 798.198 10902.1 795.627 10901.1 792.317 10901 789.007 10901.1 786.436 10902.1 784.603 10904.2 782.771 10906.2 781.841 10908.9 781.814 10912.2L781.814 10949.7C781.8 10952.3 781.09 10954.3 779.684 10955.7 778.277 10957.1 776.256 10957.9 773.621 10957.9L757.727 10957.9C755.092 10957.9 753.072 10957.1 751.665 10955.7 750.259 10954.3 749.549 10952.3 749.535 10949.7L749.535 10883.3C749.549 10880.7 750.259 10878.7 751.665 10877.3 753.072 10875.9 755.092 10875.2 757.727 10875.1L767.722 10875.1C770.357 10875.2 772.378 10875.9 773.785 10877.3 775.191 10878.7 775.901 10880.7 775.914 10883.3L775.914 10886.8C778.516 10882.9 781.878 10879.8 786 10877.5 790.122 10875.1 795.127 10873.9 801.015 10873.8ZM699.109 10873.8C712.8 10874.1 723.865 10878.1 732.305 10886 740.746 10893.9 745.088 10904.2 745.334 10916.9 745.088 10929.6 740.746 10939.9 732.305 10947.8 723.865 10955.7 712.8 10959.8 699.109 10960 685.419 10959.8 674.353 10955.7 665.913 10947.8 657.473 10939.9 653.13 10929.6 652.885 10916.9 653.13 10904.2 657.473 10893.9 665.913 10886 674.353 10878.1 685.419 10874.1 699.109 10873.8ZM1145.34 10846.3C1146.19 10846.2 1146.84 10846.4 1147.3 10846.9 1147.9 10847.4 1148.2 10848.3 1148.2 10849.6L1148.2 10875.5 1170.98 10875.5C1171.99 10875.5 1172.81 10875.7 1173.44 10876.3 1174.08 10876.8 1174.41 10877.6 1174.43 10878.6L1174.43 10879.9C1174.41 10880.9 1174.08 10881.7 1173.44 10882.2 1172.81 10882.7 1171.99 10883 1170.98 10883L1148.2 10883 1148.2 10934.9C1148.23 10940.6 1149.51 10944.8 1152.05 10947.6 1154.58 10950.4 1158.16 10951.8 1162.79 10951.8 1164.72 10951.8 1166.43 10951.5 1167.93 10950.9 1169.43 10950.4 1170.94 10949.6 1172.46 10948.7 1173.68 10948 1174.69 10947.8 1175.49 10948 1176.3 10948.2 1176.98 10948.9 1177.54 10949.9L1178.03 10950.5C1178.62 10951.7 1178.68 10952.7 1178.2 10953.5 1177.72 10954.4 1177.12 10955.1 1176.4 10955.6 1174.29 10957 1172.1 10958 1169.82 10958.8 1167.53 10959.5 1164.97 10959.8 1162.13 10959.8 1155.01 10959.8 1149.42 10957.7 1145.38 10953.6 1141.33 10949.4 1139.27 10943.2 1139.2 10935.1L1139.2 10883 1130.07 10883C1115.22 10883.4 1108.55 10887.3 1105.69 10890.1 1102.83 10892.8 1099.74 10902.1 1099.62 10910.5L1099.62 10954.3C1099.61 10955.3 1099.31 10956.2 1098.72 10956.9 1098.14 10957.5 1097.35 10957.9 1096.35 10957.9L1093.9 10957.9C1092.9 10957.9 1092.11 10957.5 1091.53 10956.9 1090.94 10956.2 1090.64 10955.3 1090.63 10954.3L1090.63 10878.9C1090.64 10877.8 1090.94 10877 1091.53 10876.4 1092.11 10875.8 1092.9 10875.5 1093.9 10875.5L1095.86 10875.5C1096.93 10875.5 1097.74 10875.8 1098.29 10876.4 1098.85 10877 1099.13 10877.8 1099.13 10878.9L1099.13 10889.4C1101.85 10884.5 1109.53 10876.1 1139.2 10875.5L1139.2 10850.6C1139.19 10849.7 1139.45 10849 1139.98 10848.4 1140.5 10847.8 1141.33 10847.3 1142.47 10847L1144.43 10846.5C1144.76 10846.4 1145.06 10846.3 1145.34 10846.3ZM623.756 10846C625.549 10846.1 626.979 10846.7 628.047 10847.9 629.471 10849.5 630.188 10851.6 630.198 10854.3L630.198 10875.1 645.118 10875.1C647.761 10875.2 649.81 10875.9 651.266 10877.3 652.721 10878.7 653.458 10880.7 653.479 10883.3L653.479 10890C653.458 10892.7 652.721 10894.7 651.266 10896.1 649.81 10897.5 647.761 10898.2 645.118 10898.2L630.198 10898.2 630.198 10923.1C630.266 10926.8 631.072 10929.4 632.616 10930.8 634.16 10932.2 636.032 10932.9 638.231 10932.8 639.4 10932.8 640.547 10932.6 641.675 10932.1 642.802 10931.7 643.785 10931.2 644.626 10930.7 646.72 10929.3 648.352 10929 649.524 10929.7 650.695 10930.4 651.631 10931.6 652.332 10933.3L657.906 10946.3C658.698 10948.3 658.63 10949.9 657.701 10951 656.772 10952.2 655.638 10953.2 654.299 10953.9 651.604 10955.9 648.304 10957.4 644.4 10958.4 640.496 10959.5 636.418 10960 632.165 10960 626.431 10960 620.985 10958.9 615.828 10956.7 610.671 10954.5 606.451 10950.9 603.169 10946 599.887 10941.1 598.192 10934.7 598.083 10926.8L598.083 10898.2 591.198 10898.2C588.56 10898.2 586.538 10897.5 585.131 10896.1 583.724 10894.7 583.013 10892.7 583 10890L583 10883.3C583.013 10880.7 583.724 10878.7 585.131 10877.3 586.538 10875.9 588.56 10875.2 591.198 10875.1L598.083 10875.1 598.083 10857.3C598.097 10854.6 598.807 10852.7 600.214 10851.4 601.62 10850.2 603.64 10849.4 606.276 10848.9L621.841 10846.1C622.52 10846 623.158 10846 623.756 10846ZM935.486 10841C935.973 10841.1 936.361 10841.2 936.649 10841.6 937.224 10842.2 937.504 10843.1 937.487 10844.3L937.487 10888.1C940.46 10883.7 944.355 10880.3 949.173 10877.8 953.991 10875.3 959.609 10874 966.026 10874 976.232 10874.1 984.271 10877.2 990.145 10883.3 996.018 10889.3 999.015 10897.3 999.133 10907.4L999.133 10954.3C999.13 10955.3 998.85 10956.2 998.295 10956.9 997.74 10957.5 996.928 10957.9 995.862 10957.9L993.572 10957.9C992.505 10957.9 991.694 10957.5 991.138 10956.9 990.583 10956.2 990.304 10955.3 990.3 10954.3L990.3 10908.2C990.208 10900.2 987.891 10893.8 983.35 10889.2 978.809 10884.5 972.596 10882.1 964.713 10882 956.547 10882.1 950 10884.6 945.073 10889.4 940.145 10894.2 937.617 10900.6 937.487 10908.5L937.487 10954.3C937.484 10955.3 937.204 10956.2 936.649 10956.9 936.093 10957.5 935.282 10957.9 934.215 10957.9L931.925 10957.9C930.859 10957.9 930.048 10957.5 929.493 10956.9 928.937 10956.2 928.657 10955.3 928.654 10954.3L928.654 10845.3C928.641 10844.4 928.872 10843.7 929.349 10843.1 929.826 10842.5 930.631 10842 931.762 10841.7L933.725 10841.2C934.411 10841 934.998 10841 935.486 10841Z" fill="#7F7F7F" fill-rule="evenodd"/></g></svg>